# xmcd
#
# Track frame offsets:
#	150
#	19302
#	38282
#	48807
#	68837
#	89252
#	104780
#	121250
#	134977
#	155852
#
# Disc length: 2349 seconds
# Revision: 7
# Processed by: cddbd v1.5.2PL0 Copyright (c) Steve Scherf et al.
# Submitted via: dBpowerAMP V12.0
#
DISCID=8a092b0a
DTITLE=Ry Cooder - 1970-1987
DYEAR=2013
DGENRE=Blues
TTITLE0=Boomer's Story
TTITLE1=Cherry Ball Blues
TTITLE2=Crow Black Chicken
TTITLE3=Ax Sweet Mama
TTITLE4=Maria Elena
TTITLE5=Dark End Of The Street
TTITLE6=Rally 'Round The Flag
TTITLE7=Comin' In On A Wing And A Prayer
TTITLE8=President Kennedy
TTITLE9=Good Morning Mr. Railroad Man
EXTD=
EXTT0=
EXTT1=
EXTT2=
EXTT3=
EXTT4=
EXTT5=
EXTT6=
EXTT7=
EXTT8=
EXTT9=
PLAYORDER=
